<svg width="116" height="40" viewBox="0 0 116 40" fill="none" xmlns="http://www.w3.org/2000/svg">
<g clip-path="url(#clip0_969_7152)">
<path d="M55.1465 9.81138C55.4167 9.91613 55.6758 10.065 55.9184 10.2745L55.2899 11.0243C55.1245 10.8975 54.9591 10.7983 54.7992 10.7321C54.6393 10.6659 54.4629 10.6329 54.2809 10.6329C53.906 10.6329 53.6083 10.7927 53.3878 11.107C53.1672 11.4268 53.0625 11.9175 53.0625 12.579C53.0625 13.2296 53.1728 13.7148 53.3878 14.029C53.6083 14.3433 53.9115 14.5032 54.2975 14.5032C54.5015 14.5032 54.6889 14.4646 54.8543 14.3874C55.0197 14.3102 55.2016 14.2 55.3946 14.0511L55.9845 14.8119C55.775 15.0214 55.5214 15.1923 55.2182 15.3302C54.9205 15.4625 54.5897 15.5342 54.2258 15.5342C53.7075 15.5342 53.261 15.4184 52.875 15.1923C52.4946 14.9663 52.1969 14.63 51.9819 14.1889C51.7669 13.7424 51.6621 13.2076 51.6621 12.5846C51.6621 11.9781 51.7724 11.4488 51.9874 11.0078C52.2079 10.5667 52.5056 10.2304 52.8916 10.0043C53.2775 9.77279 53.7131 9.66252 54.2037 9.66252C54.5621 9.65701 54.8708 9.70663 55.1465 9.81138Z" fill="#BEBEBE"/>
<path d="M60.3674 9.79492L60.2296 10.7432H58.2613V12.0829H59.9815V13.0092H58.2613V14.4426H60.3674V15.3964H56.9326V9.79492H60.3674Z" fill="#BEBEBE"/>
<path d="M63.3893 13.2524H62.871V15.3915H61.5479V9.79004H63.3838C64.1501 9.79004 64.7235 9.92787 65.1094 10.209C65.4954 10.4902 65.6883 10.9203 65.6883 11.4936C65.6883 11.852 65.6001 12.1552 65.4292 12.3923C65.2583 12.6294 64.9826 12.8334 64.6132 13.0043L66.0357 15.386H64.5416L63.3893 13.2524ZM62.8766 12.3427H63.4334C63.7311 12.3427 63.9516 12.2765 64.1005 12.1387C64.2494 12.0064 64.321 11.7914 64.321 11.4992C64.321 11.229 64.2438 11.0305 64.084 10.9092C63.9241 10.7879 63.6815 10.7218 63.3507 10.7218H62.8766V12.3427Z" fill="#BEBEBE"/>
<path d="M71.0194 9.79492L69.4592 15.3964H67.8107L66.1953 9.79492H67.5957L68.6598 14.3599L69.6632 9.79492H71.0194Z" fill="#BEBEBE"/>
<path d="M75.2316 9.79492L75.0938 10.7432H73.1201V12.0829H74.8402V13.0092H73.1201V14.4426H75.2316V15.3964H71.7969V9.79492H75.2316Z" fill="#BEBEBE"/>
<path d="M79.5157 9.81138C79.7858 9.91613 80.0449 10.065 80.2875 10.2745L79.659 11.0243C79.4936 10.8975 79.3282 10.7983 79.1683 10.7321C79.0084 10.6659 78.832 10.6329 78.6501 10.6329C78.2752 10.6329 77.9774 10.7927 77.7569 11.107C77.5364 11.4268 77.4316 11.9175 77.4316 12.579C77.4316 13.2296 77.5419 13.7148 77.7569 14.029C77.9774 14.3433 78.2807 14.5032 78.6666 14.5032C78.8706 14.5032 79.058 14.4646 79.2234 14.3874C79.3888 14.3102 79.5708 14.2 79.7637 14.0511L80.3537 14.8119C80.1442 15.0214 79.8906 15.1923 79.5873 15.3302C79.2896 15.4625 78.9588 15.5342 78.5949 15.5342C78.0767 15.5342 77.6301 15.4184 77.2442 15.1923C76.8638 14.9663 76.566 14.63 76.351 14.1889C76.136 13.7424 76.0312 13.2076 76.0312 12.5846C76.0312 11.9781 76.1415 11.4488 76.3565 11.0078C76.5771 10.5667 76.8748 10.2304 77.2607 10.0043C77.6466 9.77279 78.0822 9.66252 78.5729 9.66252C78.9312 9.65701 79.2455 9.70663 79.5157 9.81138Z" fill="#BEBEBE"/>
<path d="M84.7414 9.79492L84.6036 10.7432H82.6298V12.0829H84.35V13.0092H82.6298V14.4426H84.7414V15.3964H81.3066V9.79492H84.7414Z" fill="#BEBEBE"/>
<path d="M87.7633 13.2524H87.2451V15.3915H85.9219V9.79004H87.7578C88.5241 9.79004 89.0975 9.92787 89.4835 10.209C89.8694 10.4902 90.0624 10.9203 90.0624 11.4936C90.0624 11.852 89.9741 12.1552 89.8032 12.3923C89.6323 12.6294 89.3567 12.8334 88.9873 13.0043L90.4097 15.386H88.9156L87.7633 13.2524ZM87.2451 12.3427H87.8019C88.0996 12.3427 88.3202 12.2765 88.469 12.1387C88.6179 12.0064 88.6895 11.7914 88.6895 11.4992C88.6895 11.229 88.6124 11.0305 88.4525 10.9092C88.2926 10.7879 88.05 10.7218 87.7192 10.7218H87.2451V12.3427Z" fill="#BEBEBE"/>
<path d="M92.5819 7.67285L93.056 8.62665L91.1153 9.33235L90.79 8.68729L92.5819 7.67285ZM92.5984 15.397H91.2752V9.79546H92.5984V15.397Z" fill="#BEBEBE"/>
<path d="M96.9541 15.3964L96.6619 14.1945H95.03L94.7488 15.3964H93.376L95.063 9.79492H96.6729L98.36 15.3964H96.9541ZM95.256 13.2297H96.4358L95.8459 10.7542L95.256 13.2297Z" fill="#BEBEBE"/>
<path d="M56.2551 17.6514L54.4633 21.1523V23.2529H53.1346V21.1578L51.3428 17.6514H52.7873L53.8238 20.1158L54.8602 17.6514H56.2551Z" fill="#BEBEBE"/>
<path d="M64.9275 23.2535H63.6264L63.5271 21.0647C63.4996 20.541 63.4885 20.0778 63.4885 19.6643C63.4885 19.3501 63.494 19.0579 63.5106 18.7767L62.645 22.6636H61.3935L60.4728 18.7767C60.5058 19.2453 60.5224 19.6864 60.5224 20.0999C60.5224 20.4142 60.5169 20.7394 60.5003 21.0757L60.4011 23.248H59.1055L59.5245 17.6465H61.195L62.033 21.4451L62.8159 17.6465H64.4975L64.9275 23.2535Z" fill="#BEBEBE"/>
<path d="M69.0293 23.2529L68.7371 22.051H67.1052L66.824 23.2529H65.4512L67.1382 17.6514H68.7481L70.4352 23.2529H69.0293ZM67.3367 21.0861H68.5166L67.9266 18.6107L67.3367 21.0861Z" fill="#BEBEBE"/>
<path d="M72.5406 17.6514V22.1998H74.7184L74.5805 23.2529H71.2119V17.6514H72.5406Z" fill="#BEBEBE"/>
<path d="M78.7926 17.6514L78.6658 18.6713H77.282V23.2529H75.9588V18.6713H74.5088V17.6514H78.7926Z" fill="#BEBEBE"/>
<path d="M83.1262 17.6514L82.9884 18.5997H81.0146V19.9394H82.7347V20.8711H81.0146V22.2991H83.1262V23.2529H79.6914V17.6514H83.1262Z" fill="#BEBEBE"/>
<path d="M86.1481 21.1137H85.6298V23.2529H84.3066V17.6514H86.1426C86.9089 17.6514 87.4823 17.7892 87.8682 18.0704C88.2542 18.3516 88.4471 18.7816 88.4471 19.355C88.4471 19.7133 88.3589 20.0166 88.188 20.2536C88.0171 20.4907 87.7414 20.6947 87.372 20.8656L88.7945 23.2473H87.3004L86.1481 21.1137ZM85.6298 20.1985H86.1867C86.4844 20.1985 86.7049 20.1323 86.8538 19.9945C87.0026 19.8622 87.0743 19.6472 87.0743 19.355C87.0743 19.0848 86.9971 18.8863 86.8372 18.7651C86.6774 18.6438 86.4348 18.5776 86.104 18.5776H85.6298V20.1985Z" fill="#BEBEBE"/>
<path d="M90.9608 15.5293L91.4349 16.4831L89.4942 17.1888L89.1689 16.5437L90.9608 15.5293ZM90.9773 23.2534H89.6541V17.6519H90.9773V23.2534Z" fill="#BEBEBE"/>
<path d="M95.333 23.2529L95.0408 22.051H93.4089L93.1277 23.2529H91.7549L93.4419 17.6514H95.0518L96.7389 23.2529H95.333ZM93.6404 21.0861H94.8203L94.2303 18.6107L93.6404 21.0861Z" fill="#BEBEBE"/>
<path d="M56.751 31.3358L56.2879 31.9257C55.6649 31.3689 55.1797 31.1924 54.1763 31.1924C52.809 31.1924 51.8662 30.2056 51.8662 28.3476C51.8662 26.5117 52.82 25.4531 54.1928 25.4531C55.5767 25.4531 56.5194 26.4621 56.5194 28.3366C56.5194 29.7369 56.0122 30.4371 55.2183 30.8231C55.8523 30.8286 56.343 31.0381 56.751 31.3358ZM54.1928 30.6246C55.1632 30.6246 55.7751 29.963 55.7751 28.3366C55.7751 26.7102 55.1687 26.032 54.1928 26.032C53.239 26.032 52.6105 26.7102 52.6105 28.3421C52.6105 29.963 53.2556 30.6246 54.1928 30.6246Z" fill="#BEBEBE"/>
<path d="M61.9274 29.3394C61.9274 30.431 61.2493 31.2084 60.0033 31.2084C58.7408 31.2084 58.0957 30.431 58.0957 29.3394V25.5518H58.7904V29.2842C58.7904 30.1553 59.1763 30.6074 60.0033 30.6074C60.8358 30.6074 61.2162 30.1553 61.2162 29.2842V25.5518H61.9274V29.3394Z" fill="#BEBEBE"/>
<path d="M64.5687 25.5518H63.874V31.1091H64.5687V25.5518Z" fill="#BEBEBE"/>
<path d="M67.2923 30.4972H69.5914L69.5087 31.1091H66.5977V25.5518H67.2923V30.4972Z" fill="#BEBEBE"/>
<path d="M75.7933 31.1091H75.1151L74.9056 28.562C74.8229 27.6799 74.7623 26.7261 74.7513 26.2575L73.4998 30.4696H72.8437L71.537 26.2519C71.5315 26.8805 71.4819 27.7791 71.4102 28.6061L71.2173 31.1091H70.5557L71.0243 25.5518H71.9781L73.1965 29.6647L74.3598 25.5518H75.3136L75.7933 31.1091Z" fill="#BEBEBE"/>
<path d="M80.3864 26.1141H78.1976V27.9886H80.0942V28.5565H78.1976V30.5468H80.5242V31.1091H77.5029V25.5518H80.4636L80.3864 26.1141Z" fill="#BEBEBE"/>
<path d="M85.0945 26.0928L84.7141 26.5228C84.295 26.181 83.9036 26.0376 83.435 26.0376C82.8451 26.0376 82.3985 26.3188 82.3985 26.8646C82.3985 27.3553 82.6356 27.5924 83.6335 27.9011C84.5487 28.1768 85.2654 28.5296 85.2654 29.5716C85.2654 30.542 84.5376 31.2146 83.3192 31.2146C82.5253 31.2146 81.9133 30.95 81.4502 30.5034L81.8361 30.0678C82.2551 30.4152 82.6907 30.6357 83.3082 30.6357C83.9863 30.6357 84.5376 30.2884 84.5376 29.5992C84.5376 29.0258 84.262 28.7722 83.3082 28.4855C82.2165 28.1547 81.6762 27.7412 81.6762 26.8922C81.6762 26.0597 82.3875 25.4643 83.3964 25.4643C84.1682 25.4532 84.6424 25.6793 85.0945 26.0928Z" fill="#BEBEBE"/>
<path d="M38.8714 30.2882L39.8472 30.4701L39.9409 29.0918L38.7666 29.191L38.8714 30.2882Z" fill="#BEBEBE"/>
<path d="M38.7007 28.5345L39.9688 28.6393L40.0625 27.2334L38.585 27.3271L38.7007 28.5345Z" fill="#BEBEBE"/>
<path d="M40.3824 28.6726L41.7718 28.7939L41.9372 27.1123L40.2832 27.2171L40.3824 28.6726Z" fill="#BEBEBE"/>
<path d="M23.4561 28.9095L23.5443 30.3705L24.5367 30.5028V28.8213L23.4561 28.9095Z" fill="#BEBEBE"/>
<path d="M21.5982 28.5013L23.0647 28.6171L23.1529 27.1064L21.4824 27.2167L21.5982 28.5013Z" fill="#BEBEBE"/>
<path d="M24.5311 27.0186L23.3457 27.0957L23.4394 28.6505L24.5366 28.7387L24.5311 27.0186Z" fill="#BEBEBE"/>
<path d="M33.5343 25.7235C32.9775 25.4148 32.3545 25.2549 31.7039 25.2549C30.6895 25.2549 29.7357 25.6518 29.019 26.3686C28.3022 27.0853 27.9053 28.0391 27.9053 29.0535C27.9053 30.068 28.3022 31.0218 29.019 31.7385C29.7357 32.4552 30.6895 32.8522 31.7039 32.8522C32.3545 32.8522 32.983 32.6868 33.5343 32.3836C33.9423 32.2016 34.3172 31.948 34.6425 31.6227C35.3262 30.9391 35.7066 30.0239 35.7066 29.0535C35.7066 28.0832 35.3262 27.1735 34.6425 26.4843C34.3172 26.1591 33.9423 25.9055 33.5343 25.7235ZM34.2841 31.6503C34.036 31.8984 33.7659 32.1079 33.4682 32.2678C33.0326 32.4607 32.564 32.56 32.0733 32.56C31.1416 32.56 30.2705 32.1961 29.6089 31.5345C28.9528 30.8729 28.5889 29.9908 28.5889 29.0535C28.5889 28.1163 28.9528 27.2342 29.6089 26.5726C30.265 25.911 31.1416 25.5471 32.0733 25.5471C32.5585 25.5471 33.0326 25.6463 33.4682 25.8393C33.7659 26.0047 34.036 26.2142 34.2841 26.4568C34.9733 27.1515 35.3537 28.0722 35.3537 29.0535C35.3482 30.0349 34.9678 30.9556 34.2841 31.6503Z" fill="#BEBEBE"/>
<path d="M33.1543 26.9467C33.0881 26.9026 33.0164 26.8695 32.9503 26.8309L32.9448 26.8419C32.5809 26.6435 32.1674 26.5332 31.7373 26.5332C31.0647 26.5332 30.4362 26.7923 29.9566 27.272C29.4824 27.7461 29.2178 28.3802 29.2178 29.0528C29.2178 29.7254 29.4769 30.3539 29.9566 30.8336C30.4307 31.3077 31.0647 31.5723 31.7373 31.5723C32.1674 31.5723 32.5809 31.4676 32.9503 31.2636C33.2204 31.1423 33.4685 30.9769 33.6835 30.7619C34.1356 30.3098 34.3892 29.7033 34.3892 29.0583C34.3892 28.4132 34.1411 27.8123 33.6835 27.3547C33.5237 27.1893 33.3472 27.057 33.1543 26.9467ZM31.991 26.7703C31.9965 26.7703 31.9965 26.7703 31.991 26.7703C32.3052 26.7703 32.6029 26.8309 32.8786 26.9522L32.3273 27.9115C32.2225 27.8619 32.1067 27.8233 31.991 27.8013V26.7703ZM31.8917 27.9556C32.0406 27.9556 32.1839 27.9887 32.3162 28.0438C32.4045 28.0935 32.4927 28.1596 32.5643 28.2368C32.6911 28.3691 32.7849 28.529 32.84 28.6999L32.0185 28.8322C31.9854 28.8047 31.9524 28.7826 31.9083 28.7716L31.6161 27.9887C31.7098 27.9667 31.798 27.9556 31.8917 27.9556ZM31.7043 26.7868V27.7792C31.6491 27.7792 31.5995 27.7902 31.5444 27.7957L31.4782 27.6138L31.5003 27.8068C31.4451 27.8178 31.39 27.8343 31.3404 27.8509L30.8828 27.0625C31.1364 26.9191 31.4176 26.8254 31.7043 26.7868ZM30.3976 27.4374C30.4748 27.3602 30.5575 27.2885 30.6457 27.2224L31.0868 27.9832C31.0096 28.0328 30.9379 28.0879 30.8773 28.1541C30.8497 28.1817 30.8166 28.2148 30.7946 28.2478L30.0889 27.8399C30.1661 27.691 30.2763 27.5587 30.3976 27.4374ZM29.94 28.0879L30.6292 28.4849C30.5685 28.6062 30.5244 28.744 30.5079 28.8819H29.736C29.7581 28.6007 29.8297 28.336 29.94 28.0879ZM29.9235 29.9735C29.8132 29.7199 29.747 29.4497 29.736 29.1685H30.5024C30.5134 29.3119 30.552 29.4497 30.6071 29.5765L29.9235 29.9735ZM30.3976 30.6682C30.2653 30.5358 30.1495 30.387 30.0558 30.2271L30.756 29.8191C30.7891 29.8632 30.8277 29.9128 30.8718 29.9514C30.9324 30.0121 30.9931 30.0617 31.0592 30.1058L30.6237 30.8611C30.541 30.806 30.4693 30.7398 30.3976 30.6682ZM31.7043 31.3187C31.401 31.2801 31.1143 31.1809 30.8552 31.0265L31.3073 30.2436C31.4341 30.2933 31.5664 30.3208 31.7043 30.3263V31.3187ZM31.1364 29.8301C30.9324 29.6206 30.8221 29.345 30.8221 29.0528C30.8221 28.7606 30.9324 28.4849 31.1364 28.2754C31.2467 28.1596 31.379 28.0714 31.5278 28.0218L31.6271 28.8433C31.5719 28.8984 31.5389 28.9701 31.5389 29.0528C31.5389 29.2127 31.6712 29.345 31.8311 29.345C31.9634 29.345 32.0792 29.2512 32.1123 29.13L32.8841 28.8543C32.8951 28.9205 32.9007 28.9866 32.9007 29.0583C32.9007 29.367 32.7849 29.6537 32.5754 29.8742C32.4982 29.9514 32.4155 30.0176 32.3273 30.0672C32.195 30.1279 32.0516 30.1554 31.9027 30.1554C31.605 30.1499 31.3404 30.0341 31.1364 29.8301ZM32.9062 31.1478C32.625 31.2691 32.3162 31.3353 32.002 31.3353H31.9965V30.3098C32.1233 30.2877 32.2446 30.2492 32.3603 30.1885L32.9062 31.1478ZM33.4354 30.7453C33.3472 30.8336 33.2535 30.9163 33.1487 30.9879L32.6029 30.0452C32.6581 30.0066 32.7077 29.9625 32.7573 29.9184C32.8014 29.8742 32.84 29.8301 32.8731 29.7805L33.7773 30.3043C33.6835 30.4587 33.5678 30.6075 33.4354 30.7453ZM33.9151 30.0507L33.0164 29.5324C33.0661 29.4166 33.0991 29.2954 33.1102 29.1685H34.1246C34.1136 29.4773 34.0419 29.775 33.9151 30.0507ZM34.1246 28.8819H33.1046C33.0991 28.8488 33.0936 28.8102 33.0826 28.7771L33.656 28.5676L33.0495 28.6668C33.033 28.6172 33.0164 28.5731 32.9944 28.529L33.893 28.0108C34.0254 28.2809 34.1025 28.5731 34.1246 28.8819ZM32.8455 28.2864C32.818 28.2533 32.7904 28.2203 32.7573 28.1927C32.7022 28.1376 32.6415 28.0879 32.5809 28.0494L33.1267 27.1066C33.237 27.1838 33.3362 27.272 33.4354 27.3712C33.5567 27.4925 33.6615 27.6248 33.7552 27.7682L32.8455 28.2864Z" fill="#BEBEBE"/>
<path d="M30.3252 19.8735H30.3969C30.5237 19.8735 30.5788 19.8184 30.5788 19.6861V19.2064C30.5788 19.0851 30.5292 19.041 30.4079 19.041H30.3197C30.1984 19.041 30.1488 19.0851 30.1488 19.2064V19.6861C30.1433 19.8184 30.1984 19.8735 30.3252 19.8735Z" fill="#BEBEBE"/>
<path d="M30.3096 21.2128H30.4198C30.5411 21.2128 30.5852 21.1687 30.5852 21.0474V20.485C30.5852 20.3582 30.5356 20.3086 30.4033 20.3086H30.3206C30.1883 20.3086 30.1387 20.3582 30.1387 20.485V21.0474C30.1442 21.1687 30.1883 21.2128 30.3096 21.2128Z" fill="#BEBEBE"/>
<path d="M35.9601 22.376L35.8057 18.9302V18.9247L35.8002 18.9192L35.7671 18.8861C35.7561 18.8751 35.745 18.8641 35.734 18.853C35.712 18.831 35.6844 18.8144 35.6623 18.7924C35.6127 18.7538 35.5576 18.7207 35.508 18.6821C35.5576 18.7207 35.6072 18.7593 35.6513 18.8034C35.6734 18.8255 35.6954 18.8475 35.7175 18.8696C35.7285 18.8806 35.7395 18.8916 35.7506 18.9026L35.7781 18.9302L35.6182 22.376H33.9863H27.9823V18.9302L28.4179 21.9405H31.5053L31.6211 17.9213C31.5439 17.9213 31.4667 17.9158 31.3951 17.9158C30.7941 17.9158 30.2262 17.9764 29.7025 18.0922C29.4489 18.1473 29.2008 18.219 28.9692 18.3072C28.9913 18.2907 29.0133 18.2686 29.0409 18.2521C29.0685 18.2355 29.0905 18.2135 29.1181 18.1969L29.1953 18.1418C29.4103 17.9985 29.6363 17.8772 29.8734 17.7724C30.1105 17.6677 30.3586 17.5795 30.6177 17.5078C30.7445 17.4692 30.8713 17.4416 31.0036 17.4141C31.1359 17.392 31.2627 17.3589 31.3951 17.3424C31.6597 17.2983 31.9243 17.2762 32.1945 17.2542L32.597 17.2376C32.7293 17.2321 32.8671 17.2321 32.9994 17.2321C33.2696 17.2321 33.5397 17.2487 33.8099 17.2762C33.5452 17.2211 33.2751 17.1825 33.0049 17.1605C32.8671 17.1494 32.7348 17.1384 32.597 17.1329L32.189 17.1163C31.9188 17.1108 31.6432 17.1108 31.3675 17.1329C31.2297 17.1384 31.0918 17.1549 30.954 17.1715C30.8162 17.188 30.6783 17.2101 30.546 17.2321C30.0002 17.3314 29.4599 17.5023 28.9582 17.7724L28.8645 17.822C28.8314 17.8386 28.8038 17.8606 28.7707 17.8772C28.7101 17.9158 28.6494 17.9544 28.5888 17.993C28.473 18.0757 28.3517 18.1584 28.247 18.2576C28.1367 18.3513 28.032 18.4561 27.9327 18.5663C27.8831 18.6215 27.8335 18.6821 27.7894 18.7428L27.7563 18.7869L27.7232 18.8365C27.7122 18.853 27.7012 18.8696 27.6901 18.8861L27.6736 18.9137L27.6626 18.9302L27.6571 18.9357L27.6515 18.9468L27.6846 22.387H27.001V24.1733H36.55V22.376H35.9601ZM29.7466 20.4409C29.7466 20.2644 29.7962 20.1431 29.9065 20.0659C29.8072 19.9777 29.7576 19.8399 29.7576 19.6635V19.2224C29.7576 19.0405 29.8072 18.9026 29.901 18.8034C29.9947 18.7097 30.138 18.6601 30.32 18.6601H30.4027C30.5791 18.6601 30.7224 18.7097 30.8162 18.8034C30.9154 18.9026 30.9595 19.0405 30.9595 19.2169V19.658C30.9595 19.8399 30.9099 19.9722 30.8107 20.0604C30.9154 20.1376 30.9705 20.2644 30.9705 20.4353V21.0253C30.9705 21.2072 30.9209 21.345 30.8272 21.4443C30.7335 21.538 30.5901 21.5876 30.4082 21.5876H30.2979C30.116 21.5876 29.9781 21.538 29.8789 21.4443C29.7852 21.3505 29.7356 21.2072 29.7356 21.0253V20.4409H29.7466ZM28.8534 19.0901L28.9747 19.0736C29.0685 19.057 29.1015 19.035 29.1512 18.9633L29.2118 18.8751H29.4599V21.4829H29.074V19.4154H28.8534V19.0901ZM36.3736 23.7984L27.7067 23.6551V22.7013L35.8333 22.5635H35.9601L36.3736 22.558V23.7984Z" fill="#BEBEBE"/>
<path d="M34.2898 21.1742H34.3945C34.5158 21.1742 34.5544 21.1412 34.5544 21.0364V19.3218C34.5544 19.2225 34.5158 19.1895 34.3945 19.1895H34.2898C34.1685 19.1895 34.1299 19.2225 34.1299 19.3218V21.0364C34.1354 21.1412 34.174 21.1742 34.2898 21.1742Z" fill="#BEBEBE"/>
<path d="M32.9004 20.0999C32.9996 20.0999 33.0934 20.0723 33.143 20.0338V19.2123C33.143 19.091 33.0989 19.0469 32.9776 19.0469H32.8949C32.7736 19.0469 32.7295 19.091 32.7295 19.2123V19.929C32.7295 20.0503 32.7736 20.0999 32.9004 20.0999Z" fill="#BEBEBE"/>
<path d="M31.919 21.9411H35.2325L35.3483 18.9749C35.227 18.8757 34.9899 18.7048 34.6205 18.5338C33.8487 18.1755 32.7956 17.966 31.7646 17.9219L31.919 21.9411ZM33.7825 19.3774C33.7825 19.212 33.8266 19.0852 33.9148 18.997C34.003 18.9088 34.1354 18.8646 34.2952 18.8646H34.3945C34.5599 18.8646 34.6867 18.9088 34.7749 18.997C34.8631 19.0852 34.9072 19.212 34.9072 19.3774V20.9873C34.9072 21.1527 34.8631 21.2795 34.7749 21.3677C34.6867 21.4559 34.5599 21.5 34.3945 21.5H34.2952C34.1298 21.5 33.9975 21.4559 33.9093 21.3677C33.8211 21.2795 33.777 21.1527 33.777 20.9817V19.3774H33.7825ZM32.3325 19.2175C32.3325 19.0356 32.3821 18.8977 32.4759 18.804C32.5696 18.7103 32.7129 18.6607 32.8949 18.6607H32.9776C33.154 18.6607 33.2973 18.7103 33.3911 18.804C33.4903 18.8977 33.5344 19.0411 33.5344 19.2175V21.0314C33.5344 21.2133 33.4848 21.3511 33.3911 21.4504C33.2973 21.5441 33.154 21.5937 32.9721 21.5937H32.8894C32.7074 21.5937 32.5641 21.5496 32.4703 21.4559C32.3766 21.3622 32.327 21.2243 32.327 21.0479V20.6124H32.7184V21.0479C32.7184 21.1692 32.7626 21.2133 32.8838 21.2133H32.9665C33.0878 21.2133 33.1319 21.1692 33.1319 21.0479V20.4304C33.0437 20.4635 32.95 20.48 32.8563 20.48H32.8397C32.52 20.48 32.327 20.2871 32.327 19.9673V19.2175H32.3325Z" fill="#BEBEBE"/>
<path d="M41.661 10.516C41.0821 9.93709 40.4591 9.41333 39.7976 8.95021V8.45402H41.2696V6.89376H35.8941C35.5744 6.89376 35.2215 6.73939 34.7749 6.54091C34.2953 6.32589 33.6888 6.06125 32.9059 5.9124H32.95V5.46582H30.4139V5.9124H30.458C29.7799 6.04471 29.2451 6.26525 28.7599 6.47475C28.2196 6.70079 27.751 6.89927 27.2107 6.89927H22.0944V8.45953H23.5664V8.99432C22.9269 9.44641 22.3204 9.95914 21.7581 10.527C19.1007 13.1734 17.6396 16.7019 17.6396 20.4619C17.6396 24.222 19.1007 27.756 21.7636 30.4134C24.421 33.0708 27.955 34.5373 31.7151 34.5373C35.4751 34.5373 39.0091 33.0763 41.6666 30.4134C44.324 27.756 45.7905 24.222 45.7905 20.4619C45.7905 16.7019 44.3184 13.1734 41.661 10.516ZM44.0318 14.3532C44.1255 14.5572 44.2082 14.7612 44.2909 14.9707L19.0621 15.1526C19.0896 15.081 19.1172 15.0093 19.1448 14.9376L44.0318 14.3532ZM27.2383 10.9295C27.332 10.9019 27.4257 10.8688 27.5195 10.8413L27.5636 10.8302L27.4974 10.6207C27.4588 10.4994 27.4754 10.3726 27.536 10.2624C27.6022 10.1411 27.7235 10.0529 27.8613 10.0143C27.9054 10.0032 27.9495 9.99773 27.9936 9.99773C28.2252 9.99773 28.4236 10.1521 28.4733 10.3671L28.5229 10.5821C28.589 10.5656 28.6773 10.5491 28.7048 10.5435C28.9088 10.4994 29.1183 10.4608 29.3278 10.4278L29.3719 10.4223L29.3388 10.2072C29.3168 10.0859 29.3499 9.95914 29.4215 9.85439C29.5042 9.74412 29.6255 9.67245 29.7689 9.6504C29.7909 9.64488 29.813 9.64488 29.8406 9.64488C30.0997 9.64488 30.3092 9.83234 30.3312 10.0749L30.3533 10.2899C30.4194 10.2844 30.5132 10.2734 30.5407 10.2734C30.7282 10.2569 30.9212 10.2458 31.1086 10.2348L31.2189 10.2293L31.2078 10.0088C31.2023 9.88196 31.2464 9.76066 31.3347 9.66694C31.4284 9.5677 31.5607 9.51257 31.7096 9.50705C31.8529 9.50705 31.9852 9.56219 32.0789 9.66142C32.1672 9.75515 32.2168 9.87644 32.2113 9.99773L32.2058 10.2183C32.2719 10.2183 32.3656 10.2238 32.3932 10.2238C32.5862 10.2293 32.7736 10.2403 32.9611 10.2569L33.0713 10.2679L33.0879 10.0474C33.1044 9.80477 33.3249 9.6118 33.5786 9.6118C33.6006 9.6118 33.6227 9.61181 33.6447 9.61732C33.7881 9.63386 33.9094 9.70553 33.9976 9.8158C34.0748 9.92055 34.1078 10.0418 34.0858 10.1686L34.0527 10.3837C34.1189 10.3947 34.2071 10.4057 34.2346 10.4112C34.4221 10.4443 34.6151 10.4774 34.797 10.516L34.9017 10.538L34.9459 10.323C34.99 10.1025 35.1884 9.94812 35.4255 9.94812C35.4696 9.94812 35.5137 9.95363 35.5523 9.96465C35.6902 9.99773 35.8114 10.0859 35.8776 10.2072C35.9438 10.3175 35.9603 10.4498 35.9217 10.5656L35.8611 10.7751C35.9272 10.7916 36.0154 10.8192 36.043 10.8247C36.1478 10.8578 36.2525 10.8854 36.3517 10.9185V13.9893L27.2383 13.9949V10.9295ZM43.8719 14.0114L39.8031 14.0059V9.08253C41.5177 10.3671 42.9236 12.0597 43.8719 14.0114ZM29.008 7.29071C29.7082 6.993 30.4691 6.33692 31.682 6.33692C32.9886 6.33692 33.8597 6.72285 34.5544 7.03159C35.0396 7.24661 35.4586 7.43406 35.8941 7.43406H40.7238V7.90269H39.4061H39.351V8.17835V14.0114H38.2097L37.9561 10.0032V9.97568L37.9396 9.96465C37.708 9.78823 37.4599 9.63937 37.2118 9.50705C37.4379 9.66694 37.6584 9.83785 37.8514 10.0308L37.5977 14.0169H36.8535V10.6483H36.8479V10.6428L36.8038 10.6262C36.6881 10.5877 36.5723 10.5491 36.4565 10.5105L36.4014 10.4939V10.4388C36.3959 10.0253 36.0926 9.66142 35.6626 9.55667C35.5799 9.53462 35.4972 9.52911 35.42 9.52911C35.1113 9.52911 34.8246 9.67245 34.6537 9.91504L34.5544 10.0584L34.5103 9.89298C34.4166 9.52911 34.0913 9.25344 33.6943 9.20382C33.6557 9.19831 33.6116 9.19831 33.573 9.19831C33.2147 9.19831 32.8949 9.38576 32.7405 9.68348L32.6578 9.83785L32.5972 9.67796C32.4594 9.33063 32.101 9.09907 31.704 9.09907C31.3071 9.09907 30.9487 9.33614 30.8164 9.68899L30.7558 9.85439L30.6731 9.70002C30.5132 9.40781 30.1989 9.22588 29.8461 9.22588C29.802 9.22588 29.7579 9.23139 29.7137 9.2369C29.3168 9.28652 28.9915 9.5677 28.9033 9.93158L28.8647 10.1025L28.7655 9.95914C28.6001 9.72207 28.3134 9.58424 28.0046 9.58424C27.9219 9.58424 27.8337 9.59527 27.751 9.61732C27.321 9.72758 27.0233 10.0915 27.0233 10.505V10.5601L26.9681 10.5766C26.9075 10.5932 26.8524 10.6152 26.7917 10.6373L26.7476 10.6538V10.6593H26.7421V13.9949H25.9647L25.8765 10.097C26.1467 9.86542 26.4554 9.65591 26.7807 9.47949C27.1335 9.28101 27.5084 9.1101 27.8944 8.96675C28.6662 8.68006 29.4767 8.49261 30.2982 8.38234C30.7117 8.32721 31.1251 8.29413 31.5386 8.27759C31.9521 8.26105 32.3712 8.26105 32.7902 8.2831C33.6227 8.32721 34.4552 8.44299 35.2656 8.65801C34.4662 8.4044 33.6392 8.24451 32.8012 8.16733C32.3822 8.12873 31.9632 8.10668 31.5386 8.10668C31.1196 8.10117 30.6951 8.11771 30.2761 8.15079C29.4326 8.22246 28.5946 8.37683 27.7841 8.63595C27.3761 8.76827 26.9792 8.92816 26.5932 9.12112C26.2073 9.31409 25.8379 9.53462 25.4906 9.82131L25.4134 9.88196V9.99222L25.3252 13.9949H24.3769L24.0571 7.89718L27.2052 7.7428C27.8613 7.7428 28.4402 7.5333 29.008 7.29071ZM23.5719 9.12112V13.9949L19.5969 13.9893C19.4425 14.243 19.2936 14.6234 19.1613 14.899C20.082 12.589 21.6202 10.5987 23.5719 9.12112ZM19.6134 25.9146C19.6299 25.9476 19.6465 25.9752 19.663 26.0083C19.6465 25.9807 19.6299 25.9476 19.6134 25.9146ZM19.8119 26.3005C19.878 26.4218 19.9442 26.5486 20.0159 26.6699C19.9442 26.5431 19.878 26.4218 19.8119 26.3005ZM21.7691 29.0461C21.7912 29.0682 21.8132 29.0902 21.8353 29.1178C21.8077 29.0902 21.7912 29.0682 21.7691 29.0461ZM21.9841 29.2722C22.0062 29.2942 22.0282 29.3163 22.0503 29.3438C22.0282 29.3218 22.0062 29.2942 21.9841 29.2722ZM22.0613 29.3549C22.0834 29.3769 22.0999 29.3934 22.122 29.4155C22.0999 29.3934 22.0778 29.3714 22.0613 29.3549ZM22.133 29.4265C22.1495 29.4431 22.1716 29.4651 22.1881 29.4817C22.1716 29.4651 22.155 29.4486 22.133 29.4265ZM22.2046 29.4982C22.2543 29.5423 22.2984 29.5919 22.348 29.636C22.2984 29.5919 22.2488 29.5423 22.2046 29.4982ZM22.4252 29.7132C22.4969 29.7849 22.574 29.851 22.6512 29.9227C22.574 29.851 22.5024 29.7849 22.4252 29.7132ZM22.6567 29.9227C22.7615 30.0164 22.8607 30.1047 22.9655 30.1929C22.8607 30.1047 22.756 30.0164 22.6567 29.9227ZM23.991 30.9868C24.1729 31.1136 24.3548 31.2349 24.5423 31.3507C24.3493 31.2349 24.1674 31.1081 23.991 30.9868ZM25.2259 31.7531C25.2645 31.7752 25.3031 31.7972 25.3472 31.8193L25.1102 26.1572V26.1516L25.1046 26.1461L25.0716 26.113C25.0605 26.102 25.0495 26.091 25.0385 26.08C25.0164 26.0579 24.9889 26.0414 24.9668 26.0193C24.9172 25.9807 24.8621 25.9476 24.8124 25.9091C24.8621 25.9476 24.9117 25.9862 24.9558 26.0303C24.9778 26.0524 24.9999 26.0745 25.0219 26.0965C25.033 26.1075 25.044 26.1186 25.055 26.1296L25.0826 26.1572L25.044 26.9786L24.8455 31.5271C24.7408 31.4664 24.6415 31.4058 24.5423 31.3396V30.6284L23.6712 30.7442C23.4286 30.5678 23.197 30.3803 22.971 30.1874L23.0482 28.9303L21.7746 29.0351C21.5431 28.7815 21.3225 28.5223 21.1075 28.2522L21.1957 27.2212L20.3963 27.2819C20.5893 27.5796 20.7932 27.8663 21.0083 28.1419C20.6444 27.6733 20.3136 27.1771 20.0159 26.6644L21.2343 26.7416L21.3391 25.5507L21.4438 26.7526L23.1695 26.8628L23.2522 25.5507L23.3349 26.8739L24.5313 26.9511V26.1516C24.4486 26.102 23.6436 25.3632 22.1385 25.3246C21.4383 25.3026 20.6885 25.4239 20.2254 25.5507C20.2529 25.5286 20.275 25.5121 20.3026 25.49C20.3191 25.4735 20.3412 25.4625 20.3577 25.4459L20.4183 25.4073C20.5727 25.3026 20.7436 25.2089 20.9201 25.1317C21.0965 25.0545 21.2784 24.9883 21.4659 24.9387C21.5596 24.9112 21.6533 24.8891 21.747 24.867C21.8408 24.8505 21.94 24.8285 22.0337 24.8119C22.2267 24.7788 22.4252 24.7623 22.6237 24.7458L22.9214 24.7292C23.0206 24.7237 23.1199 24.7237 23.2191 24.7237C23.4176 24.7237 23.6161 24.7347 23.8145 24.7568C23.6216 24.7182 23.4231 24.6906 23.2246 24.6686C23.1254 24.6575 23.0261 24.652 22.9269 24.6465L22.6292 24.6355C22.4307 24.63 22.2267 24.63 22.0227 24.6465C21.9235 24.652 21.8187 24.6631 21.7195 24.6741C21.6202 24.6906 21.5155 24.7016 21.4163 24.7182C21.0138 24.7899 20.6168 24.9167 20.2474 25.1151L20.1758 25.1537C20.1537 25.1648 20.1317 25.1813 20.1096 25.1923C20.0655 25.2199 20.0214 25.2475 19.9773 25.2805C19.8891 25.3412 19.8064 25.4018 19.7237 25.4735C19.6465 25.5397 19.5748 25.6113 19.5031 25.6885C19.5197 25.7216 19.5362 25.7602 19.5528 25.7933C18.6872 24.007 18.1965 22.0057 18.1965 19.8886C18.1965 18.2732 18.4777 16.7239 19.0014 15.2905L44.5004 15.5496C44.9635 16.9114 45.2116 18.3724 45.2116 19.8886C45.2116 22.4136 44.5169 24.7788 43.315 26.7967C43.3426 26.7526 43.3702 26.7085 43.3922 26.6644V26.1406C43.3095 26.091 42.5046 25.3522 40.9994 25.3136C40.2993 25.2916 39.5495 25.4129 39.0863 25.5397C39.1139 25.5176 39.136 25.5011 39.1635 25.479C39.1801 25.4625 39.2021 25.4515 39.2187 25.4349L39.2793 25.3963C39.4337 25.2916 39.6046 25.1978 39.781 25.1207C39.9574 25.0435 40.1394 24.9773 40.3268 24.9277C40.4206 24.9001 40.5143 24.8781 40.608 24.856C40.7017 24.8395 40.801 24.8174 40.8947 24.8009C41.0877 24.7678 41.2861 24.7513 41.4846 24.7347L41.7823 24.7182C41.8816 24.7127 41.9808 24.7127 42.0801 24.7127C42.2785 24.7127 42.477 24.7237 42.6755 24.7458C42.4825 24.7072 42.284 24.6796 42.0856 24.6575C41.9863 24.6465 41.8871 24.641 41.7878 24.6355L41.4901 24.6245C41.2916 24.6189 41.0877 24.6189 40.8837 24.6355C40.7844 24.641 40.6797 24.652 40.5804 24.6631C40.4812 24.6796 40.3764 24.6906 40.2772 24.7072C39.8747 24.7788 39.4778 24.9056 39.1084 25.1041L39.0367 25.1427C39.0147 25.1537 38.9926 25.1703 38.9706 25.1813C38.9265 25.2089 38.8823 25.2364 38.8382 25.2695C38.75 25.3302 38.6673 25.3908 38.5846 25.4625C38.5019 25.5342 38.4247 25.6058 38.3531 25.6885C38.3145 25.7271 38.2814 25.7712 38.2483 25.8153L38.2207 25.8484L38.1987 25.8815C38.1932 25.8925 38.1822 25.9035 38.1766 25.9201L38.1656 25.9421L38.1601 25.9532L38.1546 25.9587L38.1491 25.9697L38.1711 31.7366C36.2525 32.7841 34.0472 33.3795 31.704 33.3795C29.3609 33.4071 27.1501 32.8117 25.2259 31.7531ZM24.84 31.5326C24.8786 31.5546 24.9172 31.5767 24.9558 31.5988C24.9227 31.5822 24.8786 31.5602 24.84 31.5326ZM42.3447 28.2301C42.1297 28.5003 41.9091 28.7649 41.6776 29.0185C41.6996 28.991 41.7272 28.9634 41.7493 28.9414L40.404 29.0571L40.4757 30.1818C40.5033 30.1598 40.5308 30.1322 40.5584 30.1102C40.3213 30.3142 40.0787 30.5126 39.8306 30.7001V30.678L38.9209 30.849L38.965 31.301C39.0588 31.2404 39.147 31.1797 39.2407 31.1191C39.1194 31.2018 38.9981 31.279 38.8768 31.3562C38.7445 31.4389 38.6067 31.5216 38.4688 31.5988C38.4578 31.6043 38.4468 31.6098 38.4413 31.6153C38.4468 31.6098 38.4578 31.6043 38.4633 31.6043C38.4578 31.6098 38.4468 31.6153 38.4413 31.6153V25.9918L38.5185 26.6423L40.0953 26.7416L40.1725 25.5507L40.2496 26.7526L41.9532 26.8628L42.0801 25.5507L42.2069 26.8739L43.2323 26.94C43.1496 27.0724 43.0669 27.2047 42.9842 27.3315C43.0504 27.2322 43.1165 27.1275 43.1827 27.0282L42.2344 27.0889L42.3447 28.2301ZM42.9842 27.3425C42.9677 27.3646 42.9567 27.3866 42.9401 27.4087C42.9567 27.3866 42.9732 27.3646 42.9842 27.3425ZM42.885 27.4969C42.8685 27.5189 42.8574 27.541 42.8409 27.563C42.8519 27.541 42.8685 27.5189 42.885 27.4969ZM42.8354 27.5686C42.7692 27.6678 42.6975 27.767 42.6259 27.8663C42.692 27.767 42.7637 27.6678 42.8354 27.5686ZM42.5652 27.9435C42.5487 27.9655 42.5321 27.982 42.5211 28.0041C42.5321 27.9876 42.5487 27.9655 42.5652 27.9435ZM42.5101 28.0206C42.4935 28.0427 42.4825 28.0592 42.466 28.0813C42.477 28.0592 42.4935 28.0372 42.5101 28.0206ZM42.455 28.0923C42.4384 28.1144 42.4219 28.1309 42.4053 28.153C42.4219 28.1309 42.4384 28.1089 42.455 28.0923ZM42.3998 28.1585C42.3833 28.1805 42.3667 28.2026 42.3447 28.2301C42.3667 28.2081 42.3833 28.186 42.3998 28.1585ZM39.8361 30.6946C39.6818 30.8104 39.5274 30.9261 39.3675 31.0364C39.5219 30.9261 39.6818 30.8104 39.8361 30.6946ZM38.4413 31.6153C38.3972 31.6373 38.3531 31.6649 38.3145 31.687C38.3531 31.6649 38.3972 31.6429 38.4413 31.6153ZM40.5694 30.0991C40.597 30.0771 40.619 30.055 40.6466 30.033C40.619 30.055 40.5915 30.0771 40.5694 30.0991ZM40.6521 30.0275C40.7072 29.9834 40.7569 29.9337 40.812 29.8841C40.7569 29.9337 40.7072 29.9779 40.6521 30.0275ZM40.8175 29.8786C40.8396 29.8566 40.8671 29.8345 40.8892 29.8125C40.8671 29.8345 40.8451 29.8566 40.8175 29.8786ZM40.9002 29.8069C40.9498 29.7573 41.005 29.7077 41.0546 29.6581C40.9994 29.7077 40.9498 29.7573 40.9002 29.8069ZM41.0601 29.6526C41.0877 29.6305 41.1097 29.6029 41.1373 29.5809C41.1097 29.6029 41.0877 29.625 41.0601 29.6526ZM41.5287 29.1784C41.5783 29.1233 41.628 29.0737 41.6776 29.0185C41.628 29.0737 41.5783 29.1288 41.5287 29.1784ZM41.2972 29.4155C41.3468 29.3659 41.3964 29.3107 41.446 29.2611C41.3964 29.3163 41.3468 29.3659 41.2972 29.4155Z" fill="#BEBEBE"/>
<path d="M33.7329 13.1526L33.8045 12.5186L32.542 12.6013L32.6633 13.1581L33.7329 13.1526Z" fill="#BEBEBE"/>
<path d="M35.2985 13.1528V12.4141L34.0801 12.4968L34.1518 13.1528H35.2985Z" fill="#BEBEBE"/>
<path d="M35.6353 12.083L35.6298 12.0775L35.6077 12.061C35.6022 12.0554 35.5967 12.0499 35.5857 12.0444C35.5692 12.0334 35.5581 12.0224 35.5416 12.0113C35.514 11.9893 35.4809 11.9672 35.4479 11.9507C35.4754 11.9727 35.503 11.9948 35.5306 12.0224C35.5416 12.0334 35.5581 12.0499 35.5692 12.061C35.5747 12.0665 35.5802 12.072 35.5857 12.083L35.6022 12.0996L35.4975 13.3786H32.3935V12.0003L32.4542 12.2925L33.8049 12.3532L33.8876 11.6089C33.8821 11.6089 33.8821 11.6089 33.8766 11.6089C33.4686 11.5978 33.0275 11.664 32.7574 11.7412C32.7739 11.7302 32.7849 11.7191 32.8015 11.7081C32.8125 11.7026 32.8235 11.6916 32.8346 11.6861L32.8676 11.664C32.9614 11.6034 33.0606 11.5482 33.1599 11.5041C33.2646 11.46 33.3694 11.4214 33.4796 11.3883C33.5348 11.3718 33.5899 11.3608 33.645 11.3442C33.7002 11.3332 33.7553 11.3222 33.8159 11.3112C33.9317 11.2946 34.042 11.2836 34.1578 11.2726L34.3342 11.267C34.3948 11.267 34.45 11.2615 34.5106 11.2615C34.6264 11.2615 34.7422 11.267 34.8579 11.2781C34.7422 11.256 34.6264 11.2395 34.5106 11.2285C34.45 11.2229 34.3948 11.2174 34.3342 11.2174L34.1578 11.2119C34.042 11.2119 33.9207 11.2119 33.8049 11.2174C33.7443 11.2174 33.6891 11.2285 33.6285 11.234C33.5678 11.245 33.5127 11.2505 33.4521 11.2615C33.215 11.3056 32.9834 11.3773 32.7684 11.4931L32.7298 11.5151C32.7188 11.5207 32.7022 11.5317 32.6912 11.5372C32.6637 11.5537 32.6416 11.5703 32.614 11.5868C32.5644 11.6199 32.5148 11.6585 32.4652 11.7026C32.4156 11.7412 32.3715 11.7853 32.3273 11.8349C32.3053 11.857 32.2832 11.8845 32.2667 11.9121L32.2502 11.9342L32.2336 11.9562C32.2281 11.9617 32.2226 11.9727 32.2171 11.9783L32.2116 11.9893L32.2061 11.9948V12.0003V12.0058L32.2226 13.5606H35.4865H35.4975H35.729L35.7235 13.4448L35.6353 12.083Z" fill="#BEBEBE"/>
<path d="M34.0638 12.3481L35.2988 12.4032V12.0724C35.2547 12.0449 34.8081 11.6369 33.9756 11.5928L34.0638 12.3481Z" fill="#BEBEBE"/>
<path d="M21.0251 22.5802L21.1078 21.5547L19.9775 21.6264L20.1099 22.6022L21.0251 22.5802Z" fill="#BEBEBE"/>
<path d="M22.9431 22.5307L23.0258 21.4336L21.5703 21.5273L21.6475 22.5638L22.9431 22.5307Z" fill="#BEBEBE"/>
<path d="M21.218 20.1104L19.79 20.1986L19.8893 20.9759L21.1463 21.0586L21.218 20.1104Z" fill="#BEBEBE"/>
<path d="M24.5312 22.4866V21.3398L23.4727 21.406L23.5554 22.5142L24.5312 22.4866Z" fill="#BEBEBE"/>
<path d="M24.5311 19.8955L23.3623 19.9727L23.456 21.2022L24.5311 21.2738V19.8955Z" fill="#BEBEBE"/>
<path d="M23.136 19.9834L21.46 20.0937L21.5316 21.0805L23.0478 21.1798L23.136 19.9834Z" fill="#BEBEBE"/>
<path d="M25.1098 19.1343V19.1288L25.1043 19.1233L25.0712 19.0902C25.0602 19.0792 25.0492 19.0682 25.0382 19.0572C25.0161 19.0351 24.9885 19.0186 24.9665 18.9965C24.9169 18.9579 24.8617 18.9248 24.8121 18.8862C24.8617 18.9248 24.9114 18.9634 24.9555 19.0075C24.9775 19.0296 24.9996 19.0516 25.0216 19.0737C25.0326 19.0847 25.0437 19.0957 25.0547 19.1068L25.0823 19.1343L24.9058 23.0598H19.6076V18.9689L19.7013 19.5148L21.2616 19.614L21.3443 18.5279L21.427 19.625L23.1636 19.7353L23.2574 18.5279L23.3511 19.7518L24.542 19.829V19.1288C24.4593 19.0792 23.6543 18.3404 22.1492 18.3018C21.449 18.2798 20.6992 18.4011 20.2361 18.5279C20.2637 18.5058 20.2857 18.4893 20.3133 18.4672C20.3298 18.4507 20.3519 18.4397 20.3684 18.4231L20.4291 18.3845C20.5834 18.2798 20.7543 18.1861 20.9308 18.1089C21.1072 18.0317 21.2891 17.9655 21.4766 17.9159C21.5703 17.8883 21.664 17.8663 21.7578 17.8442C21.8515 17.8277 21.9507 17.8056 22.0444 17.7891C22.2374 17.756 22.4359 17.7395 22.6344 17.7229L22.9321 17.7064C23.0313 17.7009 23.1306 17.7009 23.2298 17.7009C23.4283 17.7009 23.6268 17.7119 23.8252 17.734C23.6323 17.6954 23.4338 17.6678 23.2353 17.6458C23.1361 17.6347 23.0368 17.6292 22.9376 17.6237L22.6399 17.6127C22.4414 17.6072 22.2374 17.6072 22.0334 17.6237C21.9342 17.6292 21.8294 17.6402 21.7302 17.6513C21.6309 17.6678 21.5262 17.6788 21.427 17.6954C21.0245 17.767 20.6275 17.8938 20.2581 18.0923L20.1865 18.1309C20.1644 18.1419 20.1424 18.1585 20.1203 18.1695C20.0762 18.1971 20.0321 18.2246 19.988 18.2577C19.8998 18.3184 19.8171 18.379 19.7344 18.4507C19.6517 18.5224 19.5745 18.594 19.5028 18.6767C19.4642 18.7153 19.4311 18.7594 19.3981 18.8035L19.3705 18.8366L19.3484 18.8697C19.3429 18.8807 19.3319 18.8918 19.3264 18.9083L19.3154 18.9303L19.3099 18.9414L19.3043 18.9469L19.2988 18.9579L19.3209 23.3465H24.8948H24.9114H25.3028L25.2918 23.148L25.1098 19.1343Z" fill="#BEBEBE"/>
<path d="M29.4545 13.1526L29.5262 12.5186L28.2637 12.6013L28.3794 13.1581L29.4545 13.1526Z" fill="#BEBEBE"/>
<path d="M31.0153 13.1528V12.4141L29.7969 12.4968L29.8685 13.1528H31.0153Z" fill="#BEBEBE"/>
<path d="M31.357 12.083L31.3515 12.0775L31.3294 12.061C31.3239 12.0554 31.3184 12.0499 31.3074 12.0444C31.2908 12.0334 31.2798 12.0224 31.2633 12.0113C31.2357 11.9893 31.2026 11.9672 31.1695 11.9507C31.1971 11.9727 31.2247 11.9948 31.2522 12.0224C31.2633 12.0334 31.2798 12.0499 31.2908 12.061C31.2964 12.0665 31.3019 12.072 31.3074 12.083L31.3239 12.0996L31.2192 13.3786H28.1152V12.0003L28.1758 12.2925L29.5266 12.3532L29.6093 11.6089C29.6038 11.6089 29.6038 11.6089 29.5983 11.6089C29.1903 11.5978 28.7492 11.664 28.4791 11.7412C28.4956 11.7302 28.5066 11.7191 28.5232 11.7081C28.5342 11.7026 28.5452 11.6916 28.5562 11.6861L28.5893 11.664C28.6831 11.6034 28.7823 11.5482 28.8815 11.5041C28.9863 11.46 29.091 11.4214 29.2013 11.3883C29.2564 11.3718 29.3116 11.3608 29.3667 11.3442C29.4218 11.3332 29.477 11.3222 29.5376 11.3112C29.6534 11.2946 29.7637 11.2836 29.8794 11.2726L30.0559 11.267C30.1165 11.267 30.1716 11.2615 30.2323 11.2615C30.3481 11.2615 30.4638 11.267 30.5796 11.2781C30.4638 11.256 30.3481 11.2395 30.2323 11.2285C30.1716 11.2229 30.1165 11.2174 30.0559 11.2174L29.8794 11.2119C29.7637 11.2119 29.6424 11.2119 29.5266 11.2174C29.4659 11.2174 29.4108 11.2285 29.3502 11.234C29.2895 11.245 29.2344 11.2505 29.1737 11.2615C28.9367 11.3056 28.7051 11.3773 28.4901 11.4931L28.4515 11.5151C28.4405 11.5207 28.4239 11.5317 28.4129 11.5372C28.3853 11.5537 28.3633 11.5703 28.3357 11.5868C28.2861 11.6199 28.2365 11.6585 28.1869 11.7026C28.1372 11.7412 28.0931 11.7853 28.049 11.8349C28.027 11.857 28.0049 11.8845 27.9884 11.9121L27.9718 11.9342L27.9553 11.9562C27.9498 11.9617 27.9443 11.9727 27.9388 11.9783L27.9332 11.9893L27.9277 11.9948V12.0003V12.0058L27.9443 13.5606H31.2081H31.2192H31.4507L31.4452 13.4448L31.357 12.083Z" fill="#BEBEBE"/>
<path d="M31.0146 12.0773C30.9705 12.0497 30.5239 11.6418 29.6914 11.5977L29.7741 12.353L31.0091 12.4081V12.0773H31.0146Z" fill="#BEBEBE"/>
<path d="M39.8913 22.5802L39.974 21.5547L38.8438 21.6264L38.9761 22.6022L39.8913 22.5802Z" fill="#BEBEBE"/>
<path d="M41.8103 22.5307L41.893 21.4336L40.4375 21.5273L40.5147 22.5638L41.8103 22.5307Z" fill="#BEBEBE"/>
<path d="M40.0842 20.1104L38.6562 20.1986L38.7555 20.9759L40.0125 21.0586L40.0842 20.1104Z" fill="#BEBEBE"/>
<path d="M43.3974 22.4866V21.3398L42.3389 21.406L42.4216 22.5142L43.3974 22.4866Z" fill="#BEBEBE"/>
<path d="M43.3973 19.8955L42.2285 19.9727L42.3222 21.2022L43.3973 21.2738V19.8955Z" fill="#BEBEBE"/>
<path d="M42.0032 19.9834L40.3271 20.0937L40.4043 21.0805L41.915 21.1798L42.0032 19.9834Z" fill="#BEBEBE"/>
<path d="M43.7561 23.3685H43.7727H44.1641L44.1531 23.1701L43.9712 19.1343V19.1288L43.9656 19.1233L43.9326 19.0902C43.9215 19.0792 43.9105 19.0682 43.8995 19.0572C43.8774 19.0351 43.8499 19.0186 43.8278 18.9965C43.7782 18.9579 43.7231 18.9248 43.6734 18.8862C43.7231 18.9248 43.7727 18.9634 43.8168 19.0075C43.8388 19.0296 43.8609 19.0516 43.8829 19.0737C43.894 19.0847 43.905 19.0957 43.916 19.1068L43.9436 19.1343L43.7672 23.0598H38.4689V18.9745L38.5626 19.5203L40.1229 19.6195L40.2056 18.5334L40.2883 19.6305L42.025 19.7408L42.1187 18.5334L42.2124 19.7573L43.4033 19.8345V19.1288C43.3206 19.0792 42.5156 18.3404 41.0105 18.3018C40.3103 18.2798 39.5605 18.4011 39.0974 18.5279C39.125 18.5058 39.147 18.4893 39.1746 18.4672C39.1911 18.4507 39.2132 18.4397 39.2297 18.4231L39.2904 18.3845C39.4448 18.2798 39.6157 18.1861 39.7921 18.1089C39.9685 18.0317 40.1505 17.9655 40.3379 17.9159C40.4316 17.8883 40.5254 17.8663 40.6191 17.8442C40.7128 17.8277 40.812 17.8056 40.9058 17.7891C41.0987 17.756 41.2972 17.7395 41.4957 17.7229L41.7934 17.7064C41.8926 17.7009 41.9919 17.7009 42.0911 17.7009C42.2896 17.7009 42.4881 17.7119 42.6866 17.734C42.4936 17.6954 42.2951 17.6678 42.0966 17.6458C41.9974 17.6347 41.8982 17.6292 41.7989 17.6237L41.5012 17.6127C41.3027 17.6072 41.0987 17.6072 40.8947 17.6237C40.7955 17.6292 40.6908 17.6402 40.5915 17.6513C40.4923 17.6678 40.3875 17.6788 40.2883 17.6954C39.8858 17.767 39.4889 17.8938 39.1195 18.0923L39.0478 18.1309C39.0257 18.1419 39.0037 18.1585 38.9816 18.1695C38.9375 18.1971 38.8934 18.2246 38.8493 18.2577C38.7611 18.3184 38.6784 18.379 38.5957 18.4507C38.513 18.5224 38.4358 18.594 38.3641 18.6767C38.3256 18.7153 38.2925 18.7594 38.2594 18.8035L38.2318 18.8366L38.2098 18.8697C38.2043 18.8807 38.1932 18.8918 38.1877 18.9083L38.1767 18.9303L38.1712 18.9414L38.1657 18.9469L38.1602 18.9579L38.1822 23.3465H43.7561V23.3685Z" fill="#BEBEBE"/>
</g>
<defs>
<clipPath id="clip0_969_7152">
<rect width="80.72" height="29.077" fill="white" transform="translate(17.6396 5.46191)"/>
</clipPath>
</defs>
</svg>
