<svg width="116" height="40" viewBox="0 0 116 40" fill="none" xmlns="http://www.w3.org/2000/svg">
<g clip-path="url(#clip0_969_6762)">
<path d="M72.6568 29.3454C72.5033 29.375 72.2329 29.4258 71.9922 29.4258C71.1674 29.4258 70.7002 29.0789 70.7002 28.1337C70.7002 27.152 71.3209 26.8052 72.1018 26.8052C72.3424 26.8052 72.5033 26.8492 72.6271 26.8856V27.3494C72.5358 27.3237 72.2808 27.2798 72.0909 27.2798C71.638 27.2798 71.2803 27.3494 71.2803 28.1155C71.2803 28.8713 71.6528 28.9551 72.0618 28.9551C72.2808 28.9551 72.4594 28.9112 72.6568 28.8713V29.3454Z" fill="#BEBEBE"/>
<path d="M74.9776 28.1121C74.9776 27.4332 74.7551 27.2251 74.3934 27.2251C74.0249 27.2251 73.8025 27.4698 73.7911 28.1121C73.7802 28.7544 74.0141 29.0025 74.3826 29.0025C74.7477 29.0025 74.9776 28.7909 74.9776 28.1121ZM73.2109 28.1155C73.2109 27.1446 73.6815 26.8052 74.39 26.8052C75.0979 26.8052 75.5577 27.1669 75.5577 28.1155C75.5577 29.0607 75.0945 29.4258 74.3826 29.4258C73.6747 29.4258 73.2109 29.072 73.2109 28.1155Z" fill="#BEBEBE"/>
<path d="M76.9858 28.0676C77.2562 28.0676 77.497 27.9871 77.497 27.6626C77.497 27.3414 77.3076 27.2867 76.9933 27.2867H76.8147V28.0676H76.9858ZM76.2637 26.8411H76.9716C77.7525 26.8411 78.0736 27.0494 78.0736 27.6403C78.0736 28.1223 77.8256 28.2501 77.5335 28.3379V28.3813L77.6105 28.3961C77.8768 28.4948 78.0337 29.0019 78.198 29.3197V29.3887H77.5882C77.4678 29.0493 77.3401 28.5347 77.0845 28.4617H76.8147V29.3887H76.2637V26.8411Z" fill="#BEBEBE"/>
<path d="M79.3996 28.1223H79.6004C79.9216 28.1223 80.0819 28.0202 80.0819 27.7025C80.0819 27.3813 79.9216 27.29 79.6262 27.29H79.3996V28.1223ZM78.8486 26.8411H79.5422C80.2941 26.8411 80.6586 27.0129 80.6586 27.666C80.6586 28.3197 80.2245 28.5091 79.6769 28.5091H79.3996V29.3887H78.8486V26.8411Z" fill="#BEBEBE"/>
<path d="M82.9002 28.1121C82.9002 27.4332 82.6778 27.2251 82.3165 27.2251C81.9475 27.2251 81.7251 27.4698 81.7137 28.1121C81.7028 28.7544 81.9367 29.0025 82.3056 29.0025C82.6708 29.0025 82.9002 28.7909 82.9002 28.1121ZM81.1338 28.1155C81.1338 27.1446 81.6047 26.8052 82.3126 26.8052C83.0206 26.8052 83.4807 27.1669 83.4807 28.1155C83.4807 29.0607 83.0174 29.4258 82.3056 29.4258C81.5977 29.4258 81.1338 29.072 81.1338 28.1155Z" fill="#BEBEBE"/>
<path d="M84.9075 28.0676C85.1783 28.0676 85.4186 27.9871 85.4186 27.6626C85.4186 27.3414 85.2293 27.2867 84.9152 27.2867H84.7367V28.0676H84.9075ZM84.1855 26.8411H84.8935C85.6747 26.8411 85.9959 27.0494 85.9959 27.6403C85.9959 28.1223 85.7474 28.2501 85.4555 28.3379V28.3813L85.5326 28.3961C85.799 28.4948 85.9558 29.0019 86.1202 29.3197V29.3887H85.5103C85.3899 29.0493 85.2618 28.5347 85.0063 28.4617H84.7367V29.3887H84.1855V26.8411Z" fill="#BEBEBE"/>
<path d="M88.033 28.4509L87.7775 27.5712L87.7482 27.4287H87.7119L87.6826 27.5712L87.4162 28.4509H88.033ZM86.5547 29.3305L87.464 26.8229H88.0037L88.9564 29.3305V29.3887H88.3466L88.135 28.8194H87.3359L87.1492 29.3887H86.5547V29.3305Z" fill="#BEBEBE"/>
<path d="M89.8953 27.2792L89.1797 27.2975V26.8411H91.1659V27.2975L90.4465 27.2792V29.3887H89.8953V27.2792Z" fill="#BEBEBE"/>
<path d="M91.75 29.3887V26.8411H92.3012V29.3887H91.75Z" fill="#BEBEBE"/>
<path d="M94.7208 28.1121C94.7208 27.4332 94.4984 27.2251 94.1371 27.2251C93.7688 27.2251 93.5458 27.4698 93.535 28.1121C93.5241 28.7544 93.7573 29.0025 94.1263 29.0025C94.4908 29.0025 94.7208 28.7909 94.7208 28.1121ZM92.9551 28.1155C92.9551 27.1446 93.4254 26.8052 94.1333 26.8052C94.8413 26.8052 95.3013 27.1669 95.3013 28.1155C95.3013 29.0607 94.8381 29.4258 94.1263 29.4258C93.4183 29.4258 92.9551 29.072 92.9551 28.1155Z" fill="#BEBEBE"/>
<path d="M96.0068 26.8411H96.4879L97.4298 28.1805L97.561 28.3996H97.5942V26.8411H98.1454V29.3887H97.6744L96.7071 27.998L96.5975 27.812H96.558V29.3887H96.0068V26.8411Z" fill="#BEBEBE"/>
<path d="M36.7891 9.52556L32.6609 24.6123H30.2621L27.344 13.6538L24.3829 24.6123H21.9837L17.8555 9.52556H20.233L23.1724 20.4841L26.1336 9.52556H28.4894L31.4722 20.4841L34.4119 9.52556H36.7891Z" fill="#BEBEBE"/>
<path d="M37.8896 9.56895L40.2672 9.37441V13.0702L40.2239 14.4535H40.3106C41.4127 14.0428 42.2991 13.8483 43.3798 13.8483C45.3035 13.8483 46.6002 14.7131 46.6002 18.0197V24.6123H44.2226V18.2142C44.2226 16.2259 43.25 15.9666 42.1479 15.9666C41.456 15.9666 40.8724 16.118 40.2672 16.2909V24.6123H37.8896V9.56895Z" fill="#BEBEBE"/>
<path d="M48.6742 13.9998H51.0518V24.6123H48.6742V13.9998ZM49.863 9.7201C51.0952 9.7201 51.2896 10.4334 51.2896 11.2332C51.2896 12.0329 51.0302 12.7679 49.863 12.7679C48.6959 12.7679 48.458 12.0329 48.458 11.2332C48.458 10.4334 48.6742 9.7201 49.863 9.7201Z" fill="#BEBEBE"/>
<path d="M53.0615 13.9998H54.6827L55.007 14.8643H55.1584C55.785 14.324 56.779 13.8483 58.0761 13.8483C58.2273 13.8483 58.4002 13.8483 58.573 13.87V16.2042C58.1411 16.1397 57.6871 16.0747 57.2331 16.0747C56.5845 16.0747 56.066 16.2259 55.4391 16.507V24.6123H53.0615V13.9998Z" fill="#BEBEBE"/>
<path d="M59.5879 24.6123V9.56895L61.9655 9.37441V24.6123H59.5879Z" fill="#BEBEBE"/>
<path d="M81.1146 19.3592C81.1146 17.3496 80.7901 15.7069 78.8883 15.7069C76.9648 15.7069 76.4891 17.2846 76.4891 19.3592C76.4891 21.2829 76.8781 22.9474 78.7804 22.9474C80.6823 22.9474 81.1146 21.3696 81.1146 19.3592ZM78.8667 13.8479C82.2384 13.8479 83.5358 15.8364 83.5358 19.3592C83.5358 22.6662 82.3251 24.8281 78.8233 24.8281C75.322 24.8281 74.0898 22.6662 74.0898 19.3592C74.0898 15.8364 75.4948 13.8479 78.8667 13.8479Z" fill="#BEBEBE"/>
<path d="M91.7747 19.3592C91.7747 17.3496 91.4504 15.7069 89.5489 15.7069C87.6251 15.7069 87.1491 17.2846 87.1491 19.3592C87.1491 21.2829 87.5385 22.9474 89.4406 22.9474C91.3427 22.9474 91.7747 21.3696 91.7747 19.3592ZM89.5273 13.8479C92.8988 13.8479 94.1962 15.8364 94.1962 19.3592C94.1962 22.6662 92.9855 24.8281 89.4839 24.8281C85.9824 24.8281 84.75 22.6662 84.75 19.3592C84.75 15.8364 86.1551 13.8479 89.5273 13.8479Z" fill="#BEBEBE"/>
<path d="M95.7354 24.6123V9.56895L98.1128 9.37441V24.6123H95.7354Z" fill="#BEBEBE"/>
<path d="M66.2887 22.6456C66.9585 22.6667 67.3263 22.6885 68.0177 22.6885C69.4871 22.6885 70.4603 21.9103 70.4603 18.8192C70.4603 16.7012 69.5955 16.1399 68.0394 16.1399C67.4341 16.1399 66.8722 16.2472 66.2887 16.4422V22.6456ZM63.9111 13.9996H65.7052L65.8996 14.7777C66.6133 14.3887 67.9309 13.8485 69.1203 13.8485C71.2811 13.8485 72.8589 15.4263 72.8589 19.2083C72.8589 22.9263 71.1944 24.7636 68.4284 24.7636C67.4102 24.7636 66.2887 24.5475 66.2887 24.5475V29.4104L63.9111 29.6699V13.9996Z" fill="#BEBEBE"/>
<path d="M75.6809 7.47864C73.9029 5.41856 68.2613 7.22936 61.9655 11.5867V12.6848C67.5101 8.74359 72.3978 6.92508 73.7976 8.54707C75.5454 10.5722 71.1976 17.1963 64.0852 23.3343C56.9722 29.4727 49.7867 32.8009 48.0391 30.7756C47.1315 29.7237 47.8716 27.4314 49.7867 24.6121H48.6735C46.3022 28.1483 45.4133 31.1194 46.6308 32.5302C48.8503 35.1023 57.1525 31.5834 65.1725 24.6629C73.1916 17.7423 77.9001 10.0505 75.6809 7.47864Z" fill="#BEBEBE"/>
</g>
<defs>
<clipPath id="clip0_969_6762">
<rect width="80.29" height="26.7423" fill="white" transform="translate(17.8555 6.62891)"/>
</clipPath>
</defs>
</svg>
